<svg width="932" height="206" viewBox="0 0 932 206" fill="none" xmlns="http://www.w3.org/2000/svg">
<g filter="url(#filter0_d_51_944)">
<path d="M850.812 125.382C869.979 125.382 893.529 125.382 913.251 125.382C917.628 104.766 923.104 73.5107 897.915 70.1857C872.176 67.8415 857.932 86.1459 850.812 125.382ZM850.812 125.382C847.526 139.347 845.061 149.322 844.24 163.287C843.692 172.597 850.265 181.242 857.385 182.561C871.627 182.561 901.759 182.561 901.759 182.561" stroke="#E9FFF9" stroke-width="21" stroke-linecap="round"/>
<path d="M815.18 69.5207H787.795C781.041 69.9641 766.435 76.8358 762.054 100.776C757.672 124.717 753.29 147.992 751.647 156.637C750.552 164.617 751.648 179.247 765.888 181.907C781.771 181.907 788.525 181.907 792.177 181.907" stroke="#E9FFF9" stroke-width="21" stroke-linecap="round"/>
<path d="M666.755 69.5207C666.755 69.5207 689.758 69.5207 702.903 69.5207C711.119 70.8507 718.239 78.8309 716.595 95.456C715.395 107.594 711.119 126.047 711.119 126.047M711.119 126.047L698.34 182.506C698.331 182.544 698.297 182.572 698.256 182.572H655.801C640.466 177.917 640.672 161.07 644.848 148.657C649.024 136.243 659.329 126.047 667.851 126.047C684.281 126.047 711.119 126.047 711.119 126.047Z" stroke="#E9FFF9" stroke-width="21" stroke-linecap="round"/>
<path d="M543.524 183.237L567.609 69.5887C567.617 69.5491 567.652 69.5207 567.692 69.5207H614.611C614.668 69.5207 614.709 69.5752 614.693 69.6299L609.248 88.8056" stroke="#E9FFF9" stroke-width="21" stroke-linecap="round"/>
<path d="M490.398 106.096L473.42 183.902M504.638 144.667H428.144C428.061 144.667 428.008 144.56 428.047 144.471L486.564 11.665" stroke="#CA0115" stroke-width="21" stroke-linecap="round"/>
<path d="M322.804 125.382C341.972 125.382 365.524 125.382 385.241 125.382C389.622 104.766 395.099 73.5107 369.905 70.1857C344.164 67.8415 329.924 86.1459 322.804 125.382ZM322.804 125.382C319.518 139.347 317.053 149.322 316.232 163.287C315.684 172.597 322.256 181.242 329.376 182.561C343.616 182.561 373.752 182.561 373.752 182.561" stroke="#E9FFF9" stroke-width="21" stroke-linecap="round"/>
<path d="M263.548 186.586C263.548 186.586 275.597 126.735 282.169 94.814C283.813 78.1892 276.693 73.5341 271.216 70.874C268.889 69.744 225.992 68.214 225.209 71.5391C219.733 94.8141 202.311 183.357 202.311 183.357" stroke="#E9FFF9" stroke-width="21" stroke-linecap="round"/>
<path d="M117.419 65.5308C117.419 65.5308 105.369 125.382 98.7968 157.302C97.1542 173.927 104.274 178.582 109.751 181.242C112.078 182.373 154.975 183.902 155.757 180.577C161.234 157.302 178.655 68.7596 178.655 68.7596" stroke="#E9FFF9" stroke-width="21" stroke-linecap="round"/>
<path d="M51.1478 11L15 185.897M23.2154 70.1857L70.8647 69.5207" stroke="#E9FFF9" stroke-width="21" stroke-linecap="round"/>
</g>
<defs>
<filter id="filter0_d_51_944" x="0.497925" y="0.497925" width="930.998" height="204.59" filterUnits="userSpaceOnUse" color-interpolation-filters="sRGB">
<feFlood flood-opacity="0" result="BackgroundImageFix"/>
<feColorMatrix in="SourceAlpha" type="matrix" values="0 0 0 0 0 0 0 0 0 0 0 0 0 0 0 0 0 0 127 0" result="hardAlpha"/>
<feOffset dy="4"/>
<feGaussianBlur stdDeviation="2"/>
<feComposite in2="hardAlpha" operator="out"/>
<feColorMatrix type="matrix" values="0 0 0 0 0 0 0 0 0 0 0 0 0 0 0 0 0 0 0.25 0"/>
<feBlend mode="normal" in2="BackgroundImageFix" result="effect1_dropShadow_51_944"/>
<feBlend mode="normal" in="SourceGraphic" in2="effect1_dropShadow_51_944" result="shape"/>
</filter>
</defs>
</svg>
